<svg xmlns="http://www.w3.org/2000/svg" viewBox="0 0 3.7321 6.4641" width="373.2051" height="646.4102" fill="none"><path d="M-0.25 4.1651L-1.183 3.9151M-0.25 4.1651L-0.933 3.4821M-0.25 2.299L-0.933 2.9821M-0.25 2.299L-1.183 2.549M0 3.2321L-0.933 3.4821M0 3.2321L-0.933 2.9821M-0.25 4.9924L-0.1443 4.8868M-0.25 4.9924L-0.1057 4.9537M0 4.5594L0.0387 4.7037M0 4.5594L-0.0387 4.7037M0.25 4.9924L0.1057 4.9537M0.25 4.9924L0.1443 4.8868M0.25 1.4717L0.1443 1.5774M0.25 1.4717L0.1057 1.5104M0 1.9047L-0.0387 1.7604M0 1.9047L0.0387 1.7604M-0.25 1.4717L-0.1057 1.5104M-0.25 1.4717L-0.1443 1.5774M1.616 0.933L0.683 0.683M1.616 0.933L0.933 0.25M0.933 1.616L0.25 0.933M0.933 1.616L0.683 0.683M0 1.866L-0.25 0.933M0 1.866L0.25 0.933M-0.933 1.616L-0.25 0.933M1.616 -0.933L0.933 -0.25M1.866 0L0.933 0.25M1.866 0L0.933 -0.25M1.616 1.7604L1.7217 1.6547M1.616 1.7604L1.7604 1.7217M1.866 1.3274L1.9047 1.4717M1.866 1.3274L1.8274 1.4717M2.116 1.7604L1.9717 1.7217M2.116 1.7604L2.0104 1.6547M3.4821 4.1651L2.549 3.9151M3.4821 4.1651L2.799 3.4821M2.799 4.8481L2.116 4.1651M2.799 4.8481L2.549 3.9151M1.866 5.0981L1.616 4.1651M1.866 5.0981L2.116 4.1651M0.933 4.8481L1.183 3.9151M0.933 4.8481L1.616 4.1651M0.25 4.1651L0.933 3.4821M0.25 4.1651L1.183 3.9151M0 3.2321L0.933 2.9821M0 3.2321L0.933 3.4821M0.25 2.299L1.183 2.549M0.25 2.299L0.933 2.9821M0.933 1.616L1.616 2.299M0.933 1.616L1.183 2.549M1.866 1.366L2.116 2.299M1.866 1.366L1.616 2.299M2.799 1.616L2.549 2.549M2.799 1.616L2.116 2.299M3.4821 2.299L2.799 2.9821M3.4821 2.299L2.549 2.549M3.7321 3.2321L2.799 3.4821M3.7321 3.2321L2.799 2.9821M3.4821 4.9924L3.5877 4.8868M3.4821 4.9924L3.6264 4.9537M3.7321 4.5594L3.7707 4.7037M3.7321 4.5594L3.6934 4.7037M3.9821 4.9924L3.8377 4.9537M3.9821 4.9924L3.8764 4.8868M3.9821 1.4717L3.8764 1.5774M3.9821 1.4717L3.8377 1.5104M3.7321 1.9047L3.6934 1.7604M3.7321 1.9047L3.7707 1.7604M3.4821 1.4717L3.6264 1.5104M3.4821 1.4717L3.5877 1.5774M1.616 7.3971L0.933 6.7141M-0.933 4.8481L-0.25 5.5311M0 4.5981L0.25 5.5311M0 4.5981L-0.25 5.5311M0.933 4.8481L0.683 5.7811M0.933 4.8481L0.25 5.5311M1.616 5.5311L0.933 6.2141M1.616 5.5311L0.683 5.7811M1.866 6.4641L0.933 6.7141M1.866 6.4641L0.933 6.2141M2.116 4.7037L2.0104 4.8094M2.116 4.7037L1.9717 4.7424M1.866 5.1368L1.8274 4.9924M1.866 5.1368L1.9047 4.9924M1.616 4.7037L1.7604 4.7424M1.616 4.7037L1.7217 4.8094M4.6651 1.616L3.9821 0.933M3.7321 1.866L3.4821 0.933M3.7321 1.866L3.9821 0.933M2.799 1.616L3.049 0.683M2.799 1.616L3.4821 0.933M2.116 0.933L2.799 0.25M2.116 0.933L3.049 0.683M1.866 0L2.799 -0.25M1.866 0L2.799 0.25M2.116 -0.933L2.799 -0.25M3.9821 4.1651L4.6651 3.4821M3.9821 4.1651L4.9151 3.9151M3.7321 3.2321L4.6651 2.9821M3.7321 3.2321L4.6651 3.4821M3.9821 2.299L4.9151 2.549M3.9821 2.299L4.6651 2.9821M2.116 7.3971L2.799 6.7141M1.866 6.4641L2.799 6.2141M1.866 6.4641L2.799 6.7141M2.116 5.5311L3.049 5.7811M2.116 5.5311L2.799 6.2141M2.799 4.8481L3.4821 5.5311M2.799 4.8481L3.049 5.7811M3.7321 4.5981L3.9821 5.5311M3.7321 4.5981L3.4821 5.5311M4.6651 4.8481L3.9821 5.5311" stroke="currentColor" stroke-width="0.2807" stroke-linecap="round" stroke-linejoin="round"/></svg>
